<?xml version="1.0" encoding="utf-8"?>
<!-- Generator: Adobe Illustrator 24.1.0, SVG Export Plug-In . SVG Version: 6.00 Build 0)  -->
<svg version="1.1" id="Layer_1" xmlns="http://www.w3.org/2000/svg" xmlns:xlink="http://www.w3.org/1999/xlink" x="0px" y="0px"
	 viewBox="0 0 32 32" style="enable-background:new 0 0 32 32;" xml:space="preserve">
<style type="text/css">
	.st0{fill:#1ED760;}
	.st1{fill:url(#SVGID_1_);}
	.st2{fill:#FFFFFF;}
	.st3{fill:#1E9EC1;}
	.st4{clip-path:url(#SVGID_4_);}
	.st5{clip-path:url(#SVGID_5_);fill:#FFFFFF;}
	.st6{clip-path:url(#SVGID_8_);}
	.st7{clip-path:url(#SVGID_9_);fill:#FFFFFF;}
	.st8{clip-path:url(#SVGID_12_);}
	.st9{clip-path:url(#SVGID_13_);fill:#FFFFFF;}
	.st10{fill:#FF0000;}
	.st11{fill:url(#SVGID_14_);}
	.st12{clip-path:url(#SVGID_17_);}
	.st13{clip-path:url(#SVGID_18_);fill:#FFFFFF;}
	.st14{clip-path:url(#SVGID_21_);}
	.st15{clip-path:url(#SVGID_22_);fill:#FFFFFF;}
	.st16{clip-path:url(#SVGID_25_);}
	.st17{clip-path:url(#SVGID_26_);fill:#FFFFFF;}
</style>
<rect x="0.03" y="0.03" width="31.94" height="31.94"/>
<g>
	<g>
		<g>
			<g>
				<path class="st0" d="M16,4.89C9.86,4.89,4.89,9.86,4.89,16S9.86,27.11,16,27.11S27.11,22.14,27.11,16S22.14,4.89,16,4.89z
					 M21.09,20.91c-0.2,0.33-0.63,0.43-0.95,0.23c-2.61-1.59-5.89-1.95-9.76-1.07c-0.37,0.09-0.74-0.15-0.83-0.52
					s0.15-0.74,0.52-0.83c4.23-0.97,7.86-0.55,10.79,1.24C21.19,20.16,21.29,20.59,21.09,20.91z M22.45,17.89
					c-0.25,0.41-0.78,0.54-1.19,0.29c-2.99-1.84-7.54-2.37-11.07-1.29c-0.46,0.14-0.94-0.12-1.08-0.58s0.12-0.94,0.58-1.08
					c4.03-1.22,9.05-0.63,12.48,1.48C22.58,16.95,22.7,17.48,22.45,17.89z M22.57,14.74c-3.58-2.13-9.49-2.32-12.91-1.28
					c-0.55,0.17-1.13-0.14-1.3-0.69c-0.17-0.55,0.14-1.13,0.69-1.3c3.92-1.19,10.45-0.96,14.57,1.49c0.49,0.29,0.66,0.93,0.36,1.42
					C23.7,14.87,23.06,15.03,22.57,14.74z"/>
			</g>
		</g>
	</g>
</g>
</svg>
