<?xml version="1.0" encoding="utf-8"?>
<!-- Generator: Adobe Illustrator 24.1.0, SVG Export Plug-In . SVG Version: 6.00 Build 0)  -->
<svg version="1.1" id="Layer_1" xmlns="http://www.w3.org/2000/svg" xmlns:xlink="http://www.w3.org/1999/xlink" x="0px" y="0px"
	 viewBox="0 0 32 32" style="enable-background:new 0 0 32 32;" xml:space="preserve">
<style type="text/css">
	.st0{fill:#1ED760;}
	.st1{fill:url(#SVGID_1_);}
	.st2{fill:#FFFFFF;}
	.st3{fill:#1E9EC1;}
	.st4{clip-path:url(#SVGID_4_);}
	.st5{clip-path:url(#SVGID_5_);fill:#FFFFFF;}
	.st6{clip-path:url(#SVGID_8_);}
	.st7{clip-path:url(#SVGID_9_);fill:#FFFFFF;}
	.st8{clip-path:url(#SVGID_12_);}
	.st9{clip-path:url(#SVGID_13_);fill:#FFFFFF;}
	.st10{fill:#FF0000;}
	.st11{fill:url(#SVGID_14_);}
	.st12{clip-path:url(#SVGID_17_);}
	.st13{clip-path:url(#SVGID_18_);fill:#FFFFFF;}
	.st14{clip-path:url(#SVGID_21_);}
	.st15{clip-path:url(#SVGID_22_);fill:#FFFFFF;}
	.st16{clip-path:url(#SVGID_25_);}
	.st17{clip-path:url(#SVGID_26_);fill:#FFFFFF;}
</style>
<g>
	<rect x="0.02" y="0.02" width="31.96" height="31.96"/>
	<path class="st2" d="M23.67,13.45c0,2.58,0,5.17,0,7.75c0,0.57-0.08,1.12-0.33,1.64c-0.39,0.8-1.03,1.3-1.88,1.55
		c-0.47,0.14-0.96,0.21-1.45,0.23c-1.29,0.06-2.41-0.81-2.64-2.08c-0.19-1.05,0.31-2.2,1.41-2.74c0.44-0.22,0.91-0.34,1.38-0.44
		c0.51-0.11,1.03-0.21,1.54-0.33c0.37-0.09,0.62-0.31,0.69-0.7c0.02-0.09,0.02-0.17,0.02-0.26c0-2.46,0-4.92,0-7.38
		c0-0.08-0.01-0.17-0.03-0.25c-0.05-0.2-0.2-0.33-0.41-0.32c-0.22,0.01-0.43,0.05-0.64,0.09c-1.03,0.2-2.06,0.41-3.09,0.62
		c-1.05,0.21-2.1,0.42-3.16,0.64c-0.62,0.13-1.24,0.25-1.86,0.38c-0.02,0-0.04,0.01-0.06,0.02c-0.38,0.1-0.51,0.28-0.53,0.66
		c0,0.06,0,0.12,0,0.18c0,3.53,0,7.06,0,10.59c0,0.57-0.06,1.13-0.29,1.66c-0.38,0.87-1.05,1.41-1.95,1.67
		c-0.48,0.14-0.96,0.22-1.46,0.23c-1.3,0.05-2.38-0.82-2.6-2.09c-0.19-1.1,0.31-2.29,1.56-2.82c0.48-0.2,0.99-0.32,1.5-0.42
		c0.39-0.08,0.78-0.16,1.17-0.24c0.52-0.11,0.79-0.44,0.81-0.97c0-0.07,0-0.14,0-0.2c0-4.02,0-8.03,0-12.05
		c0-0.17,0.02-0.34,0.06-0.5c0.09-0.39,0.37-0.61,0.74-0.7c0.35-0.09,0.7-0.15,1.05-0.22c0.99-0.2,1.99-0.4,2.98-0.6
		c1.03-0.21,2.05-0.41,3.08-0.62c0.91-0.18,1.82-0.37,2.73-0.55c0.3-0.06,0.6-0.12,0.9-0.14c0.42-0.03,0.71,0.23,0.75,0.65
		c0.01,0.1,0.02,0.2,0.02,0.3C23.67,8.26,23.67,10.85,23.67,13.45L23.67,13.45z"/>
</g>
</svg>
